# xmcd
#
# Track frame offsets:
#	183
#	16358
#	29158
#	47295
#	62120
#	77495
#	89720
#	109820
#	125795
#	139570
#	158995
#
# Disc length: 2374 seconds
#
# Revision: 4
# Processed by: cddbd v1.5.1PL0 Copyright (c) Steve Scherf et al.
# Submitted via: audiograbber 1.81.02
#
DISCID=9309440b
DTITLE=йакоцеяопоукос мийос - та деомта
DYEAR=1900
DGENRE=Country
TTITLE0=хекеи г ацапг ластояа
TTITLE1=дем гнеяес дем яытацес
TTITLE2=о амтымгс о йейес
TTITLE3=алаятыкос йакоцеяос
TTITLE4=то воятаяи
TTITLE5=та деомта
TTITLE6=тоу акенамдяоу
TTITLE7=о киомтас йаи то екажи
TTITLE8=лоу тове пеи лиа цужтиса
TTITLE9=о мийокас о л╢ елас
TTITLE10=стоу лела та тяаима
EXTD=
EXTT0=
EXTT1=
EXTT2=
EXTT3=
EXTT4=
EXTT5=
EXTT6=
EXTT7=
EXTT8=
EXTT9=
EXTT10=
PLAYORDER=
